# xmcd
#
# Track frame offsets:
# 150
# 19985
# 41987
# 61611
# 77706
# 96685
# 110858
# 129647
# 147888
# 161088
# 176629
# 189782
#
# Disc length: 2842 seconds
#
#
# Revision: 0
# Processed by: cddbd v1.5PL3 Copyright (c) Steve Scherf et al.
# Submitted via: FreeRIP 2.70 
#
DISCID=ab0b180c
DTITLE=Various Artist - Bilboard Country Girls 2000 #2
DYEAR=2000
DGENRE=Country
TTITLE0=Rock This country - Shania twain
TTITLE1=Cowboy Take Me Away - Dixie chicks
TTITLE2=Goodbye earl - Dixie chicks
TTITLE3=Without You - Dixie chicks
TTITLE4=Breathe - Faith Hill
TTITLE5=The Way You Love Me - Faith Hill
TTITLE6=Unbreakable Heart - Jessica andrews
TTITLE7=Who I Am - Jessica Andrews
TTITLE8=I Love You - Martina McBride
TTITLE9=There You Are - Martina McBride
TTITLE10=come On Over - Shania Twain
TTITLE11=Cold Day In July/ Dixie Chicks
EXTD=
EXTT0=
EXTT1=
EXTT2=
EXTT3=
EXTT4=
EXTT5=
EXTT6=
EXTT7=
EXTT8=
EXTT9=
EXTT10=
EXTT11=
PLAYORDER=
